<?xml version="1.0" standalone="yes"?>

<svg version="1.1" viewBox="0.0 0.0 960.0 540.0" fill="none" stroke="none" stroke-linecap="square" stroke-miterlimit="10" xmlns="http://www.w3.org/2000/svg" xmlns:xlink="http://www.w3.org/1999/xlink"><clipPath id="p.0"><path d="m0 0l960.0 0l0 540.0l-960.0 0l0 -540.0z" clip-rule="nonzero"></path></clipPath><g clip-path="url(#p.0)"><path fill="#000000" fill-opacity="0.0" d="m0 0l960.0 0l0 540.0l-960.0 0z" fill-rule="nonzero"></path><path fill="#000000" fill-opacity="0.0" d="m726.08136 30.658985l0 0c0 -5.3316116 4.3221436 -9.653736 9.653748 -9.653736l197.22797 0c2.5603027 0 5.015808 1.0170879 6.826233 2.8275146c1.8104248 1.8104267 2.8275146 4.265892 2.8275146 6.8262215l0 38.61379c0 5.3316116 -4.3221436 9.653732 -9.653748 9.653732l-197.22797 0l0 0c-5.331604 0 -9.653748 -4.3221207 -9.653748 -9.653732z" fill-rule="nonzero"></path><path stroke="#000000" stroke-width="1.0" stroke-linejoin="round" stroke-linecap="butt" d="m726.08136 30.658985l0 0c0 -5.3316116 4.3221436 -9.653736 9.653748 -9.653736l197.22797 0c2.5603027 0 5.015808 1.0170879 6.826233 2.8275146c1.8104248 1.8104267 2.8275146 4.265892 2.8275146 6.8262215l0 38.61379c0 5.3316116 -4.3221436 9.653732 -9.653748 9.653732l-197.22797 0l0 0c-5.331604 0 -9.653748 -4.3221207 -9.653748 -9.653732z" fill-rule="nonzero"></path><path fill="#000000" d="m796.66156 61.68588l-13.796875 0l0 -2.8125l8.09375 -11.015625l-7.609375 0l0 -3.640625l13.03125 0l0 3.09375l-7.875 10.734375l8.15625 0l0 3.640625z" fill-rule="nonzero"></path><path fill="#000000" d="m811.20844 50.545254q-0.828125 0 -1.828125 0.53125q-0.984375 0.515625 -1.828125 1.359375l0 -2.359375q1.5625 -1.703125 3.8125 -1.703125q1.0625 0 1.9375 0.21875q0.890625 0.21875 2.28125 0.8125q1.03125 0.4375 1.796875 0.65625q0.765625 0.203125 1.5 0.203125q0.84375 0 1.84375 -0.5q1.0 -0.5 1.84375 -1.390625l0 2.34375q-1.59375 1.71875 -3.8125 1.71875q-1.125 0 -2.109375 -0.25q-0.984375 -0.265625 -2.109375 -0.765625q-1.171875 -0.5 -1.875 -0.6875q-0.703125 -0.1875 -1.453125 -0.1875zm32.046875 11.453125q-1.671875 0 -3.0625 -0.609375q-1.375 -0.625 -2.3125 -1.90625l-0.1875 0q0.1875 1.5 0.1875 2.84375l0 7.046871l-2.59375 0l0 -24.812496l2.109375 0l0.359375 2.34375l0.125 0q1.0 -1.40625 2.328125 -2.03125q1.328125 -0.625 3.046875 -0.625q3.40625 0 5.25 2.328125q1.859375 2.328125 1.859375 6.53125q0 4.21875 -1.890625 6.5625q-1.875 2.328125 -5.21875 2.328125zm-0.375 -15.546875q-2.625 0 -3.796875 1.453125q-1.171875 1.453125 -1.203125 4.625l0 0.578125q0 3.609375 1.203125 5.171875q1.203125 1.546875 3.859375 1.546875q2.21875 0 3.46875 -1.796875q1.265625 -1.796875 1.265625 -4.953125q0 -3.203125 -1.265625 -4.90625q-1.25 -1.71875 -3.53125 -1.71875zm10.546875 6.46875q0 -4.140625 1.203125 -7.75q1.21875 -3.609375 3.5 -6.328125l2.53125 0q-2.25 3.015625 -3.390625 6.625q-1.125 3.609375 -1.125 7.421875q0 3.75 1.15625 7.328125q1.15625 3.578125 3.328125 6.531246l-2.5 0q-2.296875 -2.65625 -3.5 -6.203121q-1.203125 -3.546875 -1.203125 -7.625z" fill-rule="nonzero"></path><path fill="#000000" d="m876.27094 61.68588l-13.796875 0l0 -2.8125l8.09375 -11.015625l-7.609375 0l0 -3.640625l13.03125 0l0 3.09375l-7.875 10.734375l8.15625 0l0 3.640625z" fill-rule="nonzero"></path><path fill="#000000" d="m885.41156 52.920254q0 4.109375 -1.21875 7.65625q-1.203125 3.5468712 -3.484375 6.171871l-2.5 0q2.171875 -2.9374962 3.328125 -6.515621q1.15625 -3.59375 1.15625 -7.34375q0 -3.8125 -1.140625 -7.421875q-1.125 -3.609375 -3.375 -6.625l2.53125 0q2.296875 2.734375 3.5 6.359375q1.203125 3.609375 1.203125 7.71875z" fill-rule="nonzero"></path><path fill="#000000" fill-opacity="0.0" d="m726.08136 250.6931l0 0c0 -5.331604 4.3221436 -9.653732 9.653748 -9.653732l197.22797 0c2.5603027 0 5.015808 1.0170898 6.826233 2.8275146c1.8104248 1.8104248 2.8275146 4.2658997 2.8275146 6.8262177l0 38.613785c0 5.3316345 -4.3221436 9.653748 -9.653748 9.653748l-197.22797 0l0 0c-5.331604 0 -9.653748 -4.322113 -9.653748 -9.653748z" fill-rule="nonzero"></path><path stroke="#000000" stroke-width="1.0" stroke-linejoin="round" stroke-linecap="butt" d="m726.08136 250.6931l0 0c0 -5.331604 4.3221436 -9.653732 9.653748 -9.653732l197.22797 0c2.5603027 0 5.015808 1.0170898 6.826233 2.8275146c1.8104248 1.8104248 2.8275146 4.2658997 2.8275146 6.8262177l0 38.613785c0 5.3316345 -4.3221436 9.653748 -9.653748 9.653748l-197.22797 0l0 0c-5.331604 0 -9.653748 -4.322113 -9.653748 -9.653748z" fill-rule="nonzero"></path><path fill="#000000" d="m760.2631 272.79813l-5.625 -8.546875l5.40625 0l3.390625 5.5625l3.421875 -5.5625l5.40625 0l-5.6875 8.546875l5.953125 8.921875l-5.421875 0l-3.671875 -5.984375l-3.6875 5.984375l-5.40625 0l5.921875 -8.921875z" fill-rule="nonzero"></path><path fill="#000000" d="m786.27875 270.57938q-0.828125 0 -1.828125 0.53125q-0.984375 0.515625 -1.828125 1.359375l0 -2.359375q1.5625 -1.703125 3.8125 -1.703125q1.0625 0 1.9375 0.21875q0.890625 0.21875 2.28125 0.8125q1.03125 0.4375 1.796875 0.65625q0.765625 0.203125 1.5 0.203125q0.84375 0 1.84375 -0.5q1.0 -0.5 1.84375 -1.390625l0 2.34375q-1.59375 1.71875 -3.8125 1.71875q-1.125 0 -2.109375 -0.25q-0.984375 -0.265625 -2.109375 -0.765625q-1.171875 -0.5 -1.875 -0.6875q-0.703125 -0.1875 -1.453125 -0.1875zm32.046875 11.453125q-1.671875 0 -3.0625 -0.609375q-1.375 -0.625 -2.3125 -1.90625l-0.1875 0q0.1875 1.5 0.1875 2.84375l0 7.046875l-2.59375 0l0 -24.8125l2.109375 0l0.359375 2.34375l0.125 0q1.0 -1.40625 2.328125 -2.03125q1.328125 -0.625 3.046875 -0.625q3.40625 0 5.25 2.328125q1.859375 2.328125 1.859375 6.53125q0 4.21875 -1.890625 6.5625q-1.875 2.328125 -5.21875 2.328125zm-0.375 -15.546875q-2.625 0 -3.796875 1.453125q-1.171875 1.453125 -1.203125 4.625l0 0.578125q0 3.609375 1.203125 5.171875q1.203125 1.546875 3.859375 1.546875q2.21875 0 3.46875 -1.796875q1.265625 -1.796875 1.265625 -4.953125q0 -3.203125 -1.265625 -4.90625q-1.25 -1.71875 -3.53125 -1.71875zm10.546875 6.46875q0 -4.140625 1.203125 -7.75q1.21875 -3.609375 3.5 -6.328125l2.53125 0q-2.25 3.015625 -3.390625 6.625q-1.125 3.609375 -1.125 7.421875q0 3.75 1.15625 7.328125q1.15625 3.578125 3.328125 6.53125l-2.5 0q-2.296875 -2.65625 -3.5 -6.203125q-1.203125 -3.546875 -1.203125 -7.625z" fill-rule="nonzero"></path><path fill="#000000" d="m842.7631 272.79813l-5.625 -8.546875l5.40625 0l3.390625 5.5625l3.421875 -5.5625l5.40625 0l-5.6875 8.546875l5.953125 8.921875l-5.421875 0l-3.671875 -5.984375l-3.6875 5.984375l-5.40625 0l5.921875 -8.921875z" fill-rule="nonzero"></path><path fill="#000000" d="m871.21625 257.4075l2.203125 0l0 32.0625l-2.203125 0l0 -32.0625z" fill-rule="nonzero"></path><path fill="#000000" d="m904.09125 281.72l-13.796875 0l0 -2.8125l8.09375 -11.015625l-7.609375 0l0 -3.640625l13.03125 0l0 3.09375l-7.875 10.734375l8.15625 0l0 3.640625z" fill-rule="nonzero"></path><path fill="#000000" d="m913.2319 272.95438q0 4.109375 -1.21875 7.65625q-1.203125 3.546875 -3.484375 6.171875l-2.5 0q2.171875 -2.9375 3.328125 -6.515625q1.15625 -3.59375 1.15625 -7.34375q0 -3.8125 -1.140625 -7.421875q-1.125 -3.609375 -3.375 -6.625l2.53125 0q2.296875 2.734375 3.5 6.359375q1.203125 3.609375 1.203125 7.71875z" fill-rule="nonzero"></path><path fill="#000000" fill-opacity="0.0" d="m834.34906 78.926506l0 162.11023" fill-rule="nonzero"></path><path stroke="#000000" stroke-width="1.0" stroke-linejoin="round" stroke-linecap="butt" d="m834.34906 78.926506l0 156.11023" fill-rule="evenodd"></path><path fill="#000000" stroke="#000000" stroke-width="1.0" stroke-linecap="butt" d="m832.6973 235.03674l1.6517334 4.538101l1.6517334 -4.538101z" fill-rule="evenodd"></path><path fill="#000000" fill-opacity="0.0" d="m869.1207 117.1706l0 72.44094l-34.771667 0l0 -72.44094z" fill-rule="nonzero"></path><path fill="#000000" d="m852.17926 141.5903l0 5.828125l-8.34375 0q-0.421875 -1.359375 -0.640625 -2.765625q-0.234375 -1.40625 -0.234375 -3.265625q0 -3.890625 2.3125 -6.0625q2.3125 -2.15625 6.484375 -2.15625q2.671875 0 4.6875 1.0625q2.015625 1.078125 3.0625 3.09375q1.0625 2.015625 1.0625 4.71875q0 2.75 -1.0 5.109375l-1.765625 -0.765625q0.984375 -2.328125 0.984375 -4.46875q0 -3.125 -1.859375 -4.890625q-1.859375 -1.75 -5.171875 -1.75q-3.46875 0 -5.265625 1.6875q-1.78125 1.703125 -1.78125 4.984375q0 1.78125 0.40625 3.46875l5.28125 0l0 -3.828125l1.78125 0zm-2.40625 8.550781q3.109375 0 5.8125 0.90625q2.703125 0.90625 4.75 2.609375l0 1.90625q-2.265625 -1.6875 -4.984375 -2.546875q-2.703125 -0.84375 -5.5625 -0.84375q-2.8125 0 -5.5 0.859375q-2.671875 0.875 -4.890625 2.5l0 -1.875q1.984375 -1.71875 4.640625 -2.625q2.671875 -0.890625 5.734375 -0.890625z" fill-rule="nonzero"></path><path fill="#000000" d="m843.1949 167.2739l0 -10.359375l2.109375 0l8.265625 6.078125l0 -5.703125l2.734375 0l0 9.765625l-2.328125 0l-8.046875 -5.90625l0 6.125l-2.734375 0z" fill-rule="nonzero"></path><path fill="#000000" d="m849.773 174.12155q-3.078125 0 -5.75 -0.90625q-2.65625 -0.90625 -4.625 -2.625l0 -1.875q2.203125 1.640625 4.890625 2.5q2.6875 0.875 5.5 0.875q2.859375 0 5.5625 -0.859375q2.71875 -0.84375 4.984375 -2.53125l0 1.890625q-2.0625 1.734375 -4.78125 2.625q-2.703125 0.90625 -5.78125 0.90625z" fill-rule="nonzero"></path><path fill="#000000" fill-opacity="0.0" d="m12.543535 250.6931l0 0c0 -5.331604 4.3221245 -9.653732 9.653736 -9.653732l197.22797 0c2.5603333 0 5.015793 1.0170898 6.8262177 2.8275146c1.8104248 1.8104248 2.8275146 4.2658997 2.8275146 6.8262177l0 38.613785c0 5.3316345 -4.3221283 9.653748 -9.653732 9.653748l-197.22797 0l0 0c-5.3316116 0 -9.653736 -4.322113 -9.653736 -9.653748z" fill-rule="nonzero"></path><path stroke="#000000" stroke-width="1.0" stroke-linejoin="round" stroke-linecap="butt" d="m12.543535 250.6931l0 0c0 -5.331604 4.3221245 -9.653732 9.653736 -9.653732l197.22797 0c2.5603333 0 5.015793 1.0170898 6.8262177 2.8275146c1.8104248 1.8104248 2.8275146 4.2658997 2.8275146 6.8262177l0 38.613785c0 5.3316345 -4.3221283 9.653748 -9.653732 9.653748l-197.22797 0l0 0c-5.3316116 0 -9.653736 -4.322113 -9.653736 -9.653748z" fill-rule="nonzero"></path><path fill="#000000" d="m71.655 272.79813l-5.625 -8.546875l5.40625 0l3.390625 5.5625l3.421875 -5.5625l5.40625 0l-5.6875 8.546875l5.953125 8.921875l-5.421875 0l-3.671875 -5.984375l-3.6875 5.984375l-5.40625 0l5.921875 -8.921875z" fill-rule="nonzero"></path><path fill="#000000" d="m97.67062 270.57938q-0.828125 0 -1.828125 0.53125q-0.984375 0.515625 -1.828125 1.359375l0 -2.359375q1.5625 -1.703125 3.8125 -1.703125q1.0625 0 1.9375 0.21875q0.890625 0.21875 2.28125 0.8125q1.03125 0.4375 1.796875 0.65625q0.765625 0.203125 1.5 0.203125q0.84375 0 1.84375 -0.5q1.0 -0.5 1.84375 -1.390625l0 2.34375q-1.59375 1.71875 -3.8125 1.71875q-1.125 0 -2.109375 -0.25q-0.984375 -0.265625 -2.109375 -0.765625q-1.171875 -0.5 -1.875 -0.6875q-0.703125 -0.1875 -1.453125 -0.1875zm30.546875 9.28125q2.59375 0 3.78125 -1.390625q1.1875 -1.390625 1.265625 -4.6875l0 -0.578125q0 -3.59375 -1.21875 -5.171875q-1.21875 -1.578125 -3.859375 -1.578125q-2.28125 0 -3.5 1.78125q-1.203125 1.765625 -1.203125 5.0q0 3.234375 1.1875 4.9375q1.203125 1.6875 3.546875 1.6875zm-0.390625 2.171875q-3.3125 0 -5.171875 -2.328125q-1.859375 -2.328125 -1.859375 -6.5q0 -4.203125 1.875 -6.5625q1.875 -2.359375 5.21875 -2.359375q3.515625 0 5.40625 2.65625l0.140625 0l0.375 -2.34375l2.046875 0l0 24.8125l-2.59375 0l0 -7.328125q0 -1.5625 0.171875 -2.65625l-0.203125 0q-1.796875 2.609375 -5.40625 2.609375zm12.0625 -9.078125q0 -4.140625 1.203125 -7.75q1.21875 -3.609375 3.5 -6.328125l2.53125 0q-2.25 3.015625 -3.390625 6.625q-1.125 3.609375 -1.125 7.421875q0 3.75 1.15625 7.328125q1.15625 3.578125 3.328125 6.53125l-2.5 0q-2.296875 -2.65625 -3.5 -6.203125q-1.203125 -3.546875 -1.203125 -7.625z" fill-rule="nonzero"></path><path fill="#000000" d="m154.155 272.79813l-5.625 -8.546875l5.40625 0l3.390625 5.5625l3.421875 -5.5625l5.40625 0l-5.6875 8.546875l5.953125 8.921875l-5.421875 0l-3.671875 -5.984375l-3.6875 5.984375l-5.40625 0l5.921875 -8.921875z" fill-rule="nonzero"></path><path fill="#000000" d="m174.76437 272.95438q0 4.109375 -1.21875 7.65625q-1.203125 3.546875 -3.484375 6.171875l-2.5 0q2.171875 -2.9375 3.328125 -6.515625q1.15625 -3.59375 1.15625 -7.34375q0 -3.8125 -1.140625 -7.421875q-1.125 -3.609375 -3.375 -6.625l2.53125 0q2.296875 2.734375 3.5 6.359375q1.203125 3.609375 1.203125 7.71875z" fill-rule="nonzero"></path><path fill="#000000" fill-opacity="0.0" d="m371.73355 250.6931l0 0c0 -5.331604 4.3221436 -9.653732 9.653748 -9.653732l197.22794 0c2.5603638 0 5.015808 1.0170898 6.826233 2.8275146c1.8104248 1.8104248 2.8275146 4.2658997 2.8275146 6.8262177l0 38.613785c0 5.3316345 -4.3220825 9.653748 -9.653748 9.653748l-197.22794 0l0 0c-5.331604 0 -9.653748 -4.322113 -9.653748 -9.653748z" fill-rule="nonzero"></path><path stroke="#000000" stroke-width="1.0" stroke-linejoin="round" stroke-linecap="butt" d="m371.73355 250.6931l0 0c0 -5.331604 4.3221436 -9.653732 9.653748 -9.653732l197.22794 0c2.5603638 0 5.015808 1.0170898 6.826233 2.8275146c1.8104248 1.8104248 2.8275146 4.2658997 2.8275146 6.8262177l0 38.613785c0 5.3316345 -4.3220825 9.653748 -9.653748 9.653748l-197.22794 0l0 0c-5.331604 0 -9.653748 -4.322113 -9.653748 -9.653748z" fill-rule="nonzero"></path><path fill="#000000" d="m470.99347 270.07938q0 5.65625 -3.078125 8.65625q-3.0625 2.984375 -8.828125 2.984375l-6.328125 0l0 -22.84375l7.0 0q5.328125 0 8.28125 2.953125q2.953125 2.953125 2.953125 8.25zm-2.8125 0.09375q0 -4.46875 -2.25 -6.734375q-2.234375 -2.265625 -6.65625 -2.265625l-3.859375 0l0 18.25l3.234375 0q4.75 0 7.140625 -2.328125q2.390625 -2.34375 2.390625 -6.921875zm6.046875 2.78125q0 -4.140625 1.203125 -7.75q1.21875 -3.609375 3.5 -6.328125l2.53125 0q-2.25 3.015625 -3.390625 6.625q-1.125 3.609375 -1.125 7.421875q0 3.75 1.15625 7.328125q1.15625 3.578125 3.328125 6.53125l-2.5 0q-2.296875 -2.65625 -3.5 -6.203125q-1.203125 -3.546875 -1.203125 -7.625z" fill-rule="nonzero"></path><path fill="#000000" d="m488.49347 272.79813l-5.625 -8.546875l5.40625 0l3.390625 5.5625l3.421875 -5.5625l5.40625 0l-5.6875 8.546875l5.953125 8.921875l-5.421875 0l-3.671875 -5.984375l-3.6875 5.984375l-5.40625 0l5.921875 -8.921875z" fill-rule="nonzero"></path><path fill="#000000" d="m509.10284 272.95438q0 4.109375 -1.21875 7.65625q-1.203125 3.546875 -3.484375 6.171875l-2.5 0q2.171875 -2.9375 3.328125 -6.515625q1.15625 -3.59375 1.15625 -7.34375q0 -3.8125 -1.140625 -7.421875q-1.125 -3.609375 -3.375 -6.625l2.53125 0q2.296875 2.734375 3.5 6.359375q1.203125 3.609375 1.203125 7.71875z" fill-rule="nonzero"></path><path fill="#000000" fill-opacity="0.0" d="m371.72964 441.42276l0 0c0 -5.331604 4.3221436 -9.653717 9.653748 -9.653717l197.22794 0c2.5603638 0 5.015808 1.0170593 6.826233 2.8275146c1.8104248 1.8104248 2.8275146 4.265869 2.8275146 6.8262024l0 38.6138c0 5.331604 -4.3220825 9.653717 -9.653748 9.653717l-197.22794 0l0 0c-5.331604 0 -9.653748 -4.322113 -9.653748 -9.653717z" fill-rule="nonzero"></path><path stroke="#000000" stroke-width="1.0" stroke-linejoin="round" stroke-linecap="butt" d="m371.72964 441.42276l0 0c0 -5.331604 4.3221436 -9.653717 9.653748 -9.653717l197.22794 0c2.5603638 0 5.015808 1.0170593 6.826233 2.8275146c1.8104248 1.8104248 2.8275146 4.265869 2.8275146 6.8262024l0 38.6138c0 5.331604 -4.3220825 9.653717 -9.653748 9.653717l-197.22794 0l0 0c-5.331604 0 -9.653748 -4.322113 -9.653748 -9.653717z" fill-rule="nonzero"></path><path fill="#000000" d="m458.68488 472.44965l-2.53125 0l0 -16.28125q0 -2.03125 0.125 -3.84375q-0.328125 0.328125 -0.734375 0.6875q-0.40625 0.359375 -3.71875 3.046875l-1.375 -1.78125l6.046875 -4.671875l2.1875 0l0 22.84375zm26.859375 -22.84375l-8.515625 22.84375l-2.59375 0l8.515625 -22.84375l2.59375 0zm25.34375 11.390625q0 5.921875 -1.875 8.84375q-1.859375 2.921875 -5.703125 2.921875q-3.6875 0 -5.609375 -2.984375q-1.921875 -3.0 -1.921875 -8.78125q0 -5.96875 1.859375 -8.859375q1.859375 -2.890625 5.671875 -2.890625q3.71875 0 5.640625 3.015625q1.9375 3.015625 1.9375 8.734375zm-12.484375 0q0 4.984375 1.171875 7.265625q1.171875 2.265625 3.734375 2.265625q2.59375 0 3.75 -2.296875q1.171875 -2.3125 1.171875 -7.234375q0 -4.921875 -1.171875 -7.203125q-1.15625 -2.296875 -3.75 -2.296875q-2.5625 0 -3.734375 2.265625q-1.171875 2.25 -1.171875 7.234375z" fill-rule="nonzero"></path><path fill="#000000" fill-opacity="0.0" d="m480.00128 298.96063l0 132.81891" fill-rule="nonzero"></path><path stroke="#000000" stroke-width="1.0" stroke-linejoin="round" stroke-linecap="butt" d="m480.00128 298.96063l0 126.81891" fill-rule="evenodd"></path><path fill="#000000" stroke="#000000" stroke-width="1.0" stroke-linecap="butt" d="m478.34955 425.77954l1.6517334 4.538086l1.6517334 -4.538086z" fill-rule="evenodd"></path><path fill="#000000" fill-opacity="0.0" d="m229.07896 270.0l142.64568 0" fill-rule="nonzero"></path><path stroke="#000000" stroke-width="1.0" stroke-linejoin="round" stroke-linecap="butt" d="m229.07896 270.0l136.6457 0" fill-rule="evenodd"></path><path fill="#000000" stroke="#000000" stroke-width="1.0" stroke-linecap="butt" d="m365.72467 271.65173l4.538086 -1.6517334l-4.538086 -1.6517334z" fill-rule="evenodd"></path><path fill="#000000" fill-opacity="0.0" d="m726.08136 270.0l-137.82678 0" fill-rule="nonzero"></path><path stroke="#000000" stroke-width="1.0" stroke-linejoin="round" stroke-linecap="butt" d="m726.08136 270.0l-131.82678 0" fill-rule="evenodd"></path><path fill="#000000" stroke="#000000" stroke-width="1.0" stroke-linecap="butt" d="m594.2546 268.34827l-4.538086 1.6517334l4.538086 1.6517334z" fill-rule="evenodd"></path><path fill="#000000" fill-opacity="0.0" d="m480.0 334.55905l120.47241 0l0 57.921265l-120.47241 0z" fill-rule="nonzero"></path><path fill="#000000" d="m493.5625 365.3722l-4.21875 -6.421875l4.046875 0l2.546875 4.171875l2.5625 -4.171875l4.0625 0l-4.265625 6.421875l4.46875 6.6875l-4.078125 0l-2.75 -4.484375l-2.765625 4.484375l-4.046875 0l4.4375 -6.6875z" fill-rule="nonzero"></path><path fill="#000000" d="m513.0781 363.70032q-0.625 0 -1.375 0.390625q-0.734375 0.390625 -1.375 1.03125l0 -1.765625q1.171875 -1.28125 2.859375 -1.28125q0.796875 0 1.453125 0.171875q0.671875 0.15625 1.71875 0.59375q0.765625 0.328125 1.34375 0.5q0.578125 0.15625 1.125 0.15625q0.625 0 1.375 -0.375q0.75 -0.375 1.390625 -1.046875l0 1.75q-1.203125 1.296875 -2.859375 1.296875q-0.84375 0 -1.59375 -0.1875q-0.734375 -0.203125 -1.578125 -0.578125q-0.875 -0.375 -1.40625 -0.515625q-0.515625 -0.140625 -1.078125 -0.140625zm22.910156 6.96875q1.9375 0 2.828125 -1.046875q0.890625 -1.046875 0.953125 -3.515625l0 -0.4375q0 -2.6875 -0.921875 -3.875q-0.90625 -1.1875 -2.890625 -1.1875q-1.703125 0 -2.625 1.328125q-0.90625 1.328125 -0.90625 3.765625q0 2.421875 0.890625 3.703125q0.90625 1.265625 2.671875 1.265625zm-0.296875 1.625q-2.484375 0 -3.890625 -1.75q-1.390625 -1.75 -1.390625 -4.875q0 -3.15625 1.40625 -4.921875q1.40625 -1.765625 3.921875 -1.765625q2.640625 0 4.046875 1.984375l0.109375 0l0.28125 -1.75l1.53125 0l0 18.609375l-1.9375 0l0 -5.5q0 -1.171875 0.125 -1.984375l-0.15625 0q-1.34375 1.953125 -4.046875 1.953125zm9.050781 -6.8125q0 -3.109375 0.90625 -5.8125q0.90625 -2.703125 2.609375 -4.75l1.90625 0q-1.6875 2.265625 -2.546875 4.984375q-0.84375 2.703125 -0.84375 5.5625q0 2.8125 0.859375 5.5q0.875 2.671875 2.5 4.890625l-1.875 0q-1.71875 -1.984375 -2.625 -4.640625q-0.890625 -2.671875 -0.890625 -5.734375z" fill-rule="nonzero"></path><path fill="#000000" d="m555.4375 365.3722l-4.21875 -6.421875l4.046875 0l2.546875 4.171875l2.5625 -4.171875l4.0625 0l-4.265625 6.421875l4.46875 6.6875l-4.078125 0l-2.75 -4.484375l-2.765625 4.484375l-4.046875 0l4.4375 -6.6875z" fill-rule="nonzero"></path><path fill="#000000" d="m570.8906 365.48157q0 3.078125 -0.90625 5.75q-0.90625 2.65625 -2.625 4.625l-1.875 0q1.640625 -2.203125 2.5 -4.890625q0.875 -2.6875 0.875 -5.5q0 -2.859375 -0.859375 -5.5625q-0.84375 -2.71875 -2.53125 -4.984375l1.890625 0q1.734375 2.0625 2.625 4.78125q0.90625 2.703125 0.90625 5.78125zm10.5859375 1.859375l0 -0.640625q0 -1.375 0.421875 -2.25q0.421875 -0.890625 1.5625 -1.875q1.59375 -1.34375 2.015625 -2.015625q0.421875 -0.6875 0.421875 -1.65625q0 -1.1875 -0.78125 -1.828125q-0.765625 -0.65625 -2.203125 -0.65625q-0.921875 0 -1.8125 0.21875q-0.875 0.203125 -2.0 0.78125l-0.703125 -1.578125q2.21875 -1.15625 4.640625 -1.15625q2.234375 0 3.46875 1.109375q1.25 1.09375 1.25 3.09375q0 0.859375 -0.234375 1.515625q-0.21875 0.640625 -0.671875 1.21875q-0.4375 0.578125 -1.921875 1.875q-1.1875 1.0 -1.5625 1.671875q-0.375 0.671875 -0.375 1.78125l0 0.390625l-1.515625 0zm-0.578125 3.46875q0 -1.59375 1.40625 -1.59375q0.6875 0 1.046875 0.421875q0.375 0.40625 0.375 1.171875q0 0.75 -0.375 1.171875q-0.375 0.421875 -1.046875 0.421875q-0.609375 0 -1.015625 -0.375q-0.390625 -0.375 -0.390625 -1.21875z" fill-rule="nonzero"></path></g></svg>

