<?xml version="1.0" standalone="yes"?>

<svg version="1.1" viewBox="0.0 0.0 960.0 540.0" fill="none" stroke="none" stroke-linecap="square" stroke-miterlimit="10" xmlns="http://www.w3.org/2000/svg" xmlns:xlink="http://www.w3.org/1999/xlink"><clipPath id="p.0"><path d="m0 0l960.0 0l0 540.0l-960.0 0l0 -540.0z" clip-rule="nonzero"></path></clipPath><g clip-path="url(#p.0)"><path fill="#000000" fill-opacity="0.0" d="m0 0l960.0 0l0 540.0l-960.0 0z" fill-rule="nonzero"></path><path fill="#000000" fill-opacity="0.0" d="m711.43567 30.658985l0 0c0 -5.3316116 4.3221436 -9.653736 9.653748 -9.653736l211.87366 0c2.5603027 0 5.015808 1.0170879 6.826233 2.8275146c1.8104248 1.8104267 2.8275146 4.265892 2.8275146 6.8262215l0 38.61379c0 5.3316116 -4.3221436 9.653732 -9.653748 9.653732l-211.87366 0c-5.331604 0 -9.653748 -4.3221207 -9.653748 -9.653732z" fill-rule="nonzero"></path><path stroke="#000000" stroke-width="1.0" stroke-linejoin="round" stroke-linecap="butt" d="m711.43567 30.658985l0 0c0 -5.3316116 4.3221436 -9.653736 9.653748 -9.653736l211.87366 0c2.5603027 0 5.015808 1.0170879 6.826233 2.8275146c1.8104248 1.8104267 2.8275146 4.265892 2.8275146 6.8262215l0 38.61379c0 5.3316116 -4.3221436 9.653732 -9.653748 9.653732l-211.87366 0c-5.331604 0 -9.653748 -4.3221207 -9.653748 -9.653732z" fill-rule="nonzero"></path><path fill="#000000" d="m801.3544 61.68588l0 -11.078125q0 -2.09375 -0.953125 -3.125q-0.953125 -1.03125 -2.984375 -1.03125q-2.6875 0 -3.9375 1.453125q-1.25 1.453125 -1.25 4.796875l0 8.984375l-2.59375 0l0 -17.125l2.109375 0l0.421875 2.34375l0.125 0q0.796875 -1.265625 2.234375 -1.953125q1.4375 -0.703125 3.203125 -0.703125q3.09375 0 4.65625 1.5q1.5625 1.484375 1.5625 4.765625l0 11.171875l-2.59375 0zm22.703125 -8.578125q0 4.1875 -2.109375 6.546875q-2.109375 2.34375 -5.828125 2.34375q-2.296875 0 -4.078125 -1.078125q-1.78125 -1.078125 -2.75 -3.09375q-0.96875 -2.015625 -0.96875 -4.71875q0 -4.1875 2.09375 -6.515625q2.09375 -2.34375 5.8125 -2.34375q3.59375 0 5.703125 2.390625q2.125 2.390625 2.125 6.46875zm-13.046875 0q0 3.28125 1.3125 5.0q1.3125 1.71875 3.859375 1.71875q2.546875 0 3.859375 -1.703125q1.328125 -1.71875 1.328125 -5.015625q0 -3.265625 -1.328125 -4.953125q-1.3125 -1.703125 -3.890625 -1.703125q-2.546875 0 -3.84375 1.671875q-1.296875 1.671875 -1.296875 4.984375zm20.1875 8.578125l-2.59375 0l0 -17.125l2.59375 0l0 17.125zm-2.8125 -21.765625q0 -0.890625 0.4375 -1.296875q0.4375 -0.421875 1.09375 -0.421875q0.625 0 1.078125 0.421875q0.453125 0.421875 0.453125 1.296875q0 0.875 -0.453125 1.3125q-0.453125 0.421875 -1.078125 0.421875q-0.65625 0 -1.09375 -0.421875q-0.4375 -0.4375 -0.4375 -1.3125zm19.359375 17.09375q0 2.390625 -1.78125 3.6875q-1.78125 1.296875 -5.0 1.296875q-3.40625 0 -5.3125 -1.078125l0 -2.40625q1.234375 0.625 2.640625 0.984375q1.421875 0.359375 2.734375 0.359375q2.03125 0 3.125 -0.640625q1.09375 -0.65625 1.09375 -1.984375q0 -1.0 -0.875 -1.703125q-0.859375 -0.71875 -3.375 -1.6875q-2.390625 -0.890625 -3.40625 -1.546875q-1.0 -0.671875 -1.5 -1.515625q-0.484375 -0.84375 -0.484375 -2.015625q0 -2.09375 1.703125 -3.296875q1.703125 -1.21875 4.671875 -1.21875q2.765625 0 5.40625 1.125l-0.921875 2.109375q-2.578125 -1.0625 -4.671875 -1.0625q-1.84375 0 -2.78125 0.578125q-0.9375 0.578125 -0.9375 1.59375q0 0.6875 0.34375 1.171875q0.359375 0.484375 1.140625 0.921875q0.78125 0.4375 3.0 1.265625q3.046875 1.109375 4.109375 2.234375q1.078125 1.125 1.078125 2.828125zm11.453125 4.984375q-3.796875 0 -6.0 -2.3125q-2.1875 -2.3125 -2.1875 -6.421875q0 -4.140625 2.03125 -6.578125q2.046875 -2.4375 5.484375 -2.4375q3.21875 0 5.09375 2.125q1.875 2.109375 1.875 5.578125l0 1.640625l-11.796875 0q0.078125 3.015625 1.515625 4.578125q1.453125 1.5625 4.078125 1.5625q2.765625 0 5.46875 -1.15625l0 2.3125q-1.375 0.59375 -2.609375 0.84375q-1.21875 0.265625 -2.953125 0.265625zm-0.703125 -15.578125q-2.0625 0 -3.296875 1.34375q-1.21875 1.34375 -1.4375 3.71875l8.953125 0q0 -2.453125 -1.09375 -3.75q-1.09375 -1.3125 -3.125 -1.3125z" fill-rule="nonzero"></path><path fill="#000000" fill-opacity="0.0" d="m711.43567 240.54097l0 0c0 -8.135117 6.5948486 -14.72995 14.72998 -14.72995l201.72119 0c3.9066162 0 7.6532593 1.5519104 10.415649 4.3143005c2.7623901 2.7624054 4.314331 6.509033 4.314331 10.415649l0 58.918045c0 8.135132 -6.5948486 14.72995 -14.72998 14.72995l-201.72119 0l0 0c-8.135132 0 -14.72998 -6.594818 -14.72998 -14.72995z" fill-rule="nonzero"></path><path stroke="#000000" stroke-width="1.0" stroke-linejoin="round" stroke-linecap="butt" d="m711.43567 240.54097l0 0c0 -8.135117 6.5948486 -14.72995 14.72998 -14.72995l201.72119 0c3.9066162 0 7.6532593 1.5519104 10.415649 4.3143005c2.7623901 2.7624054 4.314331 6.509033 4.314331 10.415649l0 58.918045c0 8.135132 -6.5948486 14.72995 -14.72998 14.72995l-201.72119 0l0 0c-8.135132 0 -14.72998 -6.594818 -14.72998 -14.72995z" fill-rule="nonzero"></path><path fill="#000000" d="m769.9794 245.595l0 1.640625l-3.171875 0.375q0.4375 0.546875 0.78125 1.4375q0.34375 0.875 0.34375 1.984375q0 2.515625 -1.71875 4.015625q-1.71875 1.5 -4.71875 1.5q-0.765625 0 -1.4375 -0.125q-1.65625 0.875 -1.65625 2.203125q0 0.703125 0.578125 1.046875q0.578125 0.328125 1.984375 0.328125l3.03125 0q2.78125 0 4.265625 1.171875q1.5 1.171875 1.5 3.40625q0 2.84375 -2.28125 4.328125q-2.28125 1.5 -6.65625 1.5q-3.359375 0 -5.1875 -1.25q-1.8125 -1.25 -1.8125 -3.53125q0 -1.5625 1.0 -2.703125q1.0 -1.140625 2.8125 -1.546875q-0.65625 -0.296875 -1.109375 -0.921875q-0.4375 -0.625 -0.4375 -1.453125q0 -0.9375 0.5 -1.640625q0.5 -0.703125 1.578125 -1.359375q-1.328125 -0.546875 -2.171875 -1.859375q-0.828125 -1.3125 -0.828125 -3.0q0 -2.8125 1.6875 -4.328125q1.6875 -1.53125 4.78125 -1.53125q1.34375 0 2.421875 0.3125l5.921875 0zm-13.65625 20.0q0 1.390625 1.171875 2.109375q1.171875 0.71875 3.359375 0.71875q3.265625 0 4.828125 -0.984375q1.578125 -0.96875 1.578125 -2.640625q0 -1.390625 -0.859375 -1.9375q-0.859375 -0.53125 -3.234375 -0.53125l-3.109375 0q-1.765625 0 -2.75 0.84375q-0.984375 0.84375 -0.984375 2.421875zm1.40625 -14.515625q0 1.796875 1.015625 2.71875q1.015625 0.921875 2.828125 0.921875q3.796875 0 3.796875 -3.6875q0 -3.859375 -3.84375 -3.859375q-1.828125 0 -2.8125 0.984375q-0.984375 0.984375 -0.984375 2.921875zm23.0 11.953125q-3.796875 0 -6.0 -2.3125q-2.1875 -2.3125 -2.1875 -6.421875q0 -4.140625 2.03125 -6.578125q2.046875 -2.4375 5.484375 -2.4375q3.21875 0 5.09375 2.125q1.875 2.109375 1.875 5.578125l0 1.640625l-11.796875 0q0.078125 3.015625 1.515625 4.578125q1.453125 1.5625 4.078125 1.5625q2.765625 0 5.46875 -1.15625l0 2.3125q-1.375 0.59375 -2.609375 0.84375q-1.21875 0.265625 -2.953125 0.265625zm-0.703125 -15.578125q-2.0625 0 -3.296875 1.34375q-1.21875 1.34375 -1.4375 3.71875l8.953125 0q0 -2.453125 -1.09375 -3.75q-1.09375 -1.3125 -3.125 -1.3125zm23.140625 15.265625l0 -11.078125q0 -2.09375 -0.953125 -3.125q-0.953125 -1.03125 -2.984375 -1.03125q-2.6875 0 -3.9375 1.453125q-1.25 1.453125 -1.25 4.796875l0 8.984375l-2.59375 0l0 -17.125l2.109375 0l0.421875 2.34375l0.125 0q0.796875 -1.265625 2.234375 -1.953125q1.4375 -0.703125 3.203125 -0.703125q3.09375 0 4.65625 1.5q1.5625 1.484375 1.5625 4.765625l0 11.171875l-2.59375 0zm15.15625 0.3125q-3.796875 0 -6.0 -2.3125q-2.1875 -2.3125 -2.1875 -6.421875q0 -4.140625 2.03125 -6.578125q2.046875 -2.4375 5.484375 -2.4375q3.21875 0 5.09375 2.125q1.875 2.109375 1.875 5.578125l0 1.640625l-11.796875 0q0.078125 3.015625 1.515625 4.578125q1.453125 1.5625 4.078125 1.5625q2.765625 0 5.46875 -1.15625l0 2.3125q-1.375 0.59375 -2.609375 0.84375q-1.21875 0.265625 -2.953125 0.265625zm-0.703125 -15.578125q-2.0625 0 -3.296875 1.34375q-1.21875 1.34375 -1.4375 3.71875l8.953125 0q0 -2.453125 -1.09375 -3.75q-1.09375 -1.3125 -3.125 -1.3125zm19.234375 -2.171875q1.140625 0 2.046875 0.1875l-0.359375 2.40625q-1.0625 -0.234375 -1.875 -0.234375q-2.078125 0 -3.5625 1.6875q-1.46875 1.6875 -1.46875 4.203125l0 9.1875l-2.59375 0l0 -17.125l2.140625 0l0.296875 3.171875l0.125 0q0.953125 -1.671875 2.296875 -2.578125q1.34375 -0.90625 2.953125 -0.90625zm15.78125 17.4375l-0.515625 -2.4375l-0.125 0q-1.28125 1.609375 -2.5625 2.1875q-1.265625 0.5625 -3.171875 0.5625q-2.546875 0 -4.0 -1.3125q-1.4375 -1.3125 -1.4375 -3.734375q0 -5.1875 8.296875 -5.4375l2.90625 -0.09375l0 -1.0625q0 -2.015625 -0.875 -2.96875q-0.859375 -0.96875 -2.765625 -0.96875q-2.140625 0 -4.84375 1.3125l-0.796875 -1.984375q1.265625 -0.6875 2.765625 -1.078125q1.515625 -0.390625 3.03125 -0.390625q3.0625 0 4.53125 1.359375q1.484375 1.359375 1.484375 4.359375l0 11.6875l-1.921875 0zm-5.859375 -1.828125q2.421875 0 3.796875 -1.328125q1.390625 -1.328125 1.390625 -3.71875l0 -1.546875l-2.59375 0.109375q-3.09375 0.109375 -4.46875 0.96875q-1.359375 0.84375 -1.359375 2.640625q0 1.40625 0.84375 2.140625q0.859375 0.734375 2.390625 0.734375zm18.65625 0q0.6875 0 1.328125 -0.09375q0.640625 -0.109375 1.015625 -0.21875l0 1.984375q-0.421875 0.203125 -1.25 0.328125q-0.8125 0.140625 -1.46875 0.140625q-4.96875 0 -4.96875 -5.234375l0 -10.1875l-2.453125 0l0 -1.25l2.453125 -1.078125l1.09375 -3.65625l1.5 0l0 3.96875l4.96875 0l0 2.015625l-4.96875 0l0 10.078125q0 1.546875 0.734375 2.375q0.734375 0.828125 2.015625 0.828125zm20.546875 -6.75q0 4.1875 -2.109375 6.546875q-2.109375 2.34375 -5.828125 2.34375q-2.296875 0 -4.078125 -1.078125q-1.78125 -1.078125 -2.75 -3.09375q-0.96875 -2.015625 -0.96875 -4.71875q0 -4.1875 2.09375 -6.515625q2.09375 -2.34375 5.8125 -2.34375q3.59375 0 5.703125 2.390625q2.125 2.390625 2.125 6.46875zm-13.046875 0q0 3.28125 1.3125 5.0q1.3125 1.71875 3.859375 1.71875q2.546875 0 3.859375 -1.703125q1.328125 -1.71875 1.328125 -5.015625q0 -3.265625 -1.328125 -4.953125q-1.3125 -1.703125 -3.890625 -1.703125q-2.546875 0 -3.84375 1.671875q-1.296875 1.671875 -1.296875 4.984375zm25.40625 -8.859375q1.140625 0 2.046875 0.1875l-0.359375 2.40625q-1.0625 -0.234375 -1.875 -0.234375q-2.078125 0 -3.5625 1.6875q-1.46875 1.6875 -1.46875 4.203125l0 9.1875l-2.59375 0l0 -17.125l2.140625 0l0.296875 3.171875l0.125 0q0.953125 -1.671875 2.296875 -2.578125q1.34375 -0.90625 2.953125 -0.90625z" fill-rule="nonzero"></path><path fill="#000000" d="m786.58093 296.04813q0 2.390625 -1.78125 3.6875q-1.78125 1.296875 -5.0 1.296875q-3.40625 0 -5.3125 -1.078125l0 -2.40625q1.234375 0.625 2.640625 0.984375q1.421875 0.359375 2.734375 0.359375q2.03125 0 3.125 -0.640625q1.09375 -0.65625 1.09375 -1.984375q0 -1.0 -0.875 -1.703125q-0.859375 -0.71875 -3.375 -1.6875q-2.390625 -0.890625 -3.40625 -1.546875q-1.0 -0.671875 -1.5 -1.515625q-0.484375 -0.84375 -0.484375 -2.015625q0 -2.09375 1.703125 -3.296875q1.703125 -1.21875 4.671875 -1.21875q2.765625 0 5.40625 1.125l-0.921875 2.109375q-2.578125 -1.0625 -4.671875 -1.0625q-1.84375 0 -2.78125 0.578125q-0.9375 0.578125 -0.9375 1.59375q0 0.6875 0.34375 1.171875q0.359375 0.484375 1.140625 0.921875q0.78125 0.4375 3.0 1.265625q3.046875 1.109375 4.109375 2.234375q1.078125 1.125 1.078125 2.828125zm14.75 4.671875l-0.515625 -2.4375l-0.125 0q-1.28125 1.609375 -2.5625 2.1875q-1.265625 0.5625 -3.171875 0.5625q-2.546875 0 -4.0 -1.3125q-1.4375 -1.3125 -1.4375 -3.734375q0 -5.1875 8.296875 -5.4375l2.90625 -0.09375l0 -1.0625q0 -2.015625 -0.875 -2.96875q-0.859375 -0.96875 -2.765625 -0.96875q-2.140625 0 -4.84375 1.3125l-0.796875 -1.984375q1.265625 -0.6875 2.765625 -1.078125q1.515625 -0.390625 3.03125 -0.390625q3.0625 0 4.53125 1.359375q1.484375 1.359375 1.484375 4.359375l0 11.6875l-1.921875 0zm-5.859375 -1.828125q2.421875 0 3.796875 -1.328125q1.390625 -1.328125 1.390625 -3.71875l0 -1.546875l-2.59375 0.109375q-3.09375 0.109375 -4.46875 0.96875q-1.359375 0.84375 -1.359375 2.640625q0 1.40625 0.84375 2.140625q0.859375 0.734375 2.390625 0.734375zm34.953125 1.828125l0 -11.140625q0 -2.046875 -0.875 -3.0625q-0.875 -1.03125 -2.71875 -1.03125q-2.421875 0 -3.578125 1.390625q-1.15625 1.390625 -1.15625 4.28125l0 9.5625l-2.59375 0l0 -11.140625q0 -2.046875 -0.875 -3.0625q-0.875 -1.03125 -2.734375 -1.03125q-2.4375 0 -3.578125 1.46875q-1.125 1.453125 -1.125 4.78125l0 8.984375l-2.59375 0l0 -17.125l2.109375 0l0.421875 2.34375l0.125 0q0.734375 -1.25 2.0625 -1.953125q1.34375 -0.703125 3.0 -0.703125q4.015625 0 5.25 2.90625l0.125 0q0.765625 -1.34375 2.21875 -2.125q1.453125 -0.78125 3.3125 -0.78125q2.90625 0 4.34375 1.5q1.453125 1.484375 1.453125 4.765625l0 11.171875l-2.59375 0zm15.90625 0.3125q-1.671875 0 -3.0625 -0.609375q-1.375 -0.625 -2.3125 -1.90625l-0.1875 0q0.1875 1.5 0.1875 2.84375l0 7.046875l-2.59375 0l0 -24.8125l2.109375 0l0.359375 2.34375l0.125 0q1.0 -1.40625 2.328125 -2.03125q1.328125 -0.625 3.046875 -0.625q3.40625 0 5.25 2.328125q1.859375 2.328125 1.859375 6.53125q0 4.21875 -1.890625 6.5625q-1.875 2.328125 -5.21875 2.328125zm-0.375 -15.546875q-2.625 0 -3.796875 1.453125q-1.171875 1.453125 -1.203125 4.625l0 0.578125q0 3.609375 1.203125 5.171875q1.203125 1.546875 3.859375 1.546875q2.21875 0 3.46875 -1.796875q1.265625 -1.796875 1.265625 -4.953125q0 -3.203125 -1.265625 -4.90625q-1.25 -1.71875 -3.53125 -1.71875zm14.609375 15.234375l-2.59375 0l0 -24.3125l2.59375 0l0 24.3125zm12.734375 0.3125q-3.796875 0 -6.0 -2.3125q-2.1875 -2.3125 -2.1875 -6.421875q0 -4.140625 2.03125 -6.578125q2.046875 -2.4375 5.484375 -2.4375q3.21875 0 5.09375 2.125q1.875 2.109375 1.875 5.578125l0 1.640625l-11.796875 0q0.078125 3.015625 1.515625 4.578125q1.453125 1.5625 4.078125 1.5625q2.765625 0 5.46875 -1.15625l0 2.3125q-1.375 0.59375 -2.609375 0.84375q-1.21875 0.265625 -2.953125 0.265625zm-0.703125 -15.578125q-2.0625 0 -3.296875 1.34375q-1.21875 1.34375 -1.4375 3.71875l8.953125 0q0 -2.453125 -1.09375 -3.75q-1.09375 -1.3125 -3.125 -1.3125z" fill-rule="nonzero"></path><path fill="#000000" fill-opacity="0.0" d="m827.02625 78.926506l0 146.89764" fill-rule="nonzero"></path><path stroke="#000000" stroke-width="1.0" stroke-linejoin="round" stroke-linecap="butt" d="m827.02625 78.926506l0 140.89764" fill-rule="evenodd"></path><path fill="#000000" stroke="#000000" stroke-width="1.0" stroke-linecap="butt" d="m825.3745 219.82414l1.6517334 4.538101l1.6517334 -4.538101z" fill-rule="evenodd"></path><path fill="#000000" fill-opacity="0.0" d="m649.7034 130.19554l177.32281 0l0 44.34645l-177.32281 0z" fill-rule="nonzero"></path><path fill="#000000" d="m681.31793 146.96376l0 1.640625l-3.171875 0.375q0.4375 0.546875 0.78125 1.4375q0.34375 0.875 0.34375 1.984375q0 2.515625 -1.71875 4.015625q-1.71875 1.5 -4.71875 1.5q-0.765625 0 -1.4375 -0.125q-1.65625 0.875 -1.65625 2.203125q0 0.703125 0.578125 1.046875q0.578125 0.328125 1.984375 0.328125l3.03125 0q2.78125 0 4.265625 1.171875q1.5 1.171875 1.5 3.40625q0 2.84375 -2.28125 4.328125q-2.28125 1.5 -6.65625 1.5q-3.359375 0 -5.1875 -1.25q-1.8125 -1.25 -1.8125 -3.53125q0 -1.5625 1.0 -2.703125q1.0 -1.140625 2.8125 -1.546875q-0.65625 -0.296875 -1.109375 -0.921875q-0.4375 -0.625 -0.4375 -1.453125q0 -0.9375 0.5 -1.640625q0.5 -0.703125 1.578125 -1.359375q-1.328125 -0.546875 -2.171875 -1.859375q-0.828125 -1.3125 -0.828125 -3.0q0 -2.8125 1.6875 -4.328125q1.6875 -1.53125 4.78125 -1.53125q1.34375 0 2.421875 0.3125l5.921875 0zm-13.65625 20.0q0 1.390625 1.171875 2.109375q1.171875 0.71875 3.359375 0.71875q3.265625 0 4.828125 -0.984375q1.578125 -0.96875 1.578125 -2.640625q0 -1.390625 -0.859375 -1.9375q-0.859375 -0.53125 -3.234375 -0.53125l-3.109375 0q-1.765625 0 -2.75 0.84375q-0.984375 0.84375 -0.984375 2.421875zm1.40625 -14.515625q0 1.796875 1.015625 2.71875q1.015625 0.921875 2.828125 0.921875q3.796875 0 3.796875 -3.6875q0 -3.859375 -3.84375 -3.859375q-1.828125 0 -2.8125 0.984375q-0.984375 0.984375 -0.984375 2.921875zm23.0 11.953125q-3.796875 0 -6.0 -2.3125q-2.1875 -2.3125 -2.1875 -6.421875q0 -4.140625 2.03125 -6.578125q2.046875 -2.4375 5.484375 -2.4375q3.21875 0 5.09375 2.125q1.875 2.109375 1.875 5.578125l0 1.640625l-11.796875 0q0.078125 3.015625 1.515625 4.578125q1.453125 1.5625 4.078125 1.5625q2.765625 0 5.46875 -1.15625l0 2.3125q-1.375 0.59375 -2.609375 0.84375q-1.21875 0.265625 -2.953125 0.265625zm-0.703125 -15.578125q-2.0625 0 -3.296875 1.34375q-1.21875 1.34375 -1.4375 3.71875l8.953125 0q0 -2.453125 -1.09375 -3.75q-1.09375 -1.3125 -3.125 -1.3125zm23.140625 15.265625l0 -11.078125q0 -2.09375 -0.953125 -3.125q-0.953125 -1.03125 -2.984375 -1.03125q-2.6875 0 -3.9375 1.453125q-1.25 1.453125 -1.25 4.796875l0 8.984375l-2.59375 0l0 -17.125l2.109375 0l0.421875 2.34375l0.125 0q0.796875 -1.265625 2.234375 -1.953125q1.4375 -0.703125 3.203125 -0.703125q3.09375 0 4.65625 1.5q1.5625 1.484375 1.5625 4.765625l0 11.171875l-2.59375 0zm15.15625 0.3125q-3.796875 0 -6.0 -2.3125q-2.1875 -2.3125 -2.1875 -6.421875q0 -4.140625 2.03125 -6.578125q2.046875 -2.4375 5.484375 -2.4375q3.21875 0 5.09375 2.125q1.875 2.109375 1.875 5.578125l0 1.640625l-11.796875 0q0.078125 3.015625 1.515625 4.578125q1.453125 1.5625 4.078125 1.5625q2.765625 0 5.46875 -1.15625l0 2.3125q-1.375 0.59375 -2.609375 0.84375q-1.21875 0.265625 -2.953125 0.265625zm-0.703125 -15.578125q-2.0625 0 -3.296875 1.34375q-1.21875 1.34375 -1.4375 3.71875l8.953125 0q0 -2.453125 -1.09375 -3.75q-1.09375 -1.3125 -3.125 -1.3125zm19.234375 -2.171875q1.140625 0 2.046875 0.1875l-0.359375 2.40625q-1.0625 -0.234375 -1.875 -0.234375q-2.078125 0 -3.5625 1.6875q-1.46875 1.6875 -1.46875 4.203125l0 9.1875l-2.59375 0l0 -17.125l2.140625 0l0.296875 3.171875l0.125 0q0.953125 -1.671875 2.296875 -2.578125q1.34375 -0.90625 2.953125 -0.90625zm15.78125 17.4375l-0.515625 -2.4375l-0.125 0q-1.28125 1.609375 -2.5625 2.1875q-1.265625 0.5625 -3.171875 0.5625q-2.546875 0 -4.0 -1.3125q-1.4375 -1.3125 -1.4375 -3.734375q0 -5.1875 8.296875 -5.4375l2.90625 -0.09375l0 -1.0625q0 -2.015625 -0.875 -2.96875q-0.859375 -0.96875 -2.765625 -0.96875q-2.140625 0 -4.84375 1.3125l-0.796875 -1.984375q1.265625 -0.6875 2.765625 -1.078125q1.515625 -0.390625 3.03125 -0.390625q3.0625 0 4.53125 1.359375q1.484375 1.359375 1.484375 4.359375l0 11.6875l-1.921875 0zm-5.859375 -1.828125q2.421875 0 3.796875 -1.328125q1.390625 -1.328125 1.390625 -3.71875l0 -1.546875l-2.59375 0.109375q-3.09375 0.109375 -4.46875 0.96875q-1.359375 0.84375 -1.359375 2.640625q0 1.40625 0.84375 2.140625q0.859375 0.734375 2.390625 0.734375zm18.65625 0q0.6875 0 1.328125 -0.09375q0.640625 -0.109375 1.015625 -0.21875l0 1.984375q-0.421875 0.203125 -1.25 0.328125q-0.8125 0.140625 -1.46875 0.140625q-4.96875 0 -4.96875 -5.234375l0 -10.1875l-2.453125 0l0 -1.25l2.453125 -1.078125l1.09375 -3.65625l1.5 0l0 3.96875l4.96875 0l0 2.015625l-4.96875 0l0 10.078125q0 1.546875 0.734375 2.375q0.734375 0.828125 2.015625 0.828125zm20.546875 -6.75q0 4.1875 -2.109375 6.546875q-2.109375 2.34375 -5.828125 2.34375q-2.296875 0 -4.078125 -1.078125q-1.78125 -1.078125 -2.75 -3.09375q-0.96875 -2.015625 -0.96875 -4.71875q0 -4.1875 2.09375 -6.515625q2.09375 -2.34375 5.8125 -2.34375q3.59375 0 5.703125 2.390625q2.125 2.390625 2.125 6.46875zm-13.046875 0q0 3.28125 1.3125 5.0q1.3125 1.71875 3.859375 1.71875q2.546875 0 3.859375 -1.703125q1.328125 -1.71875 1.328125 -5.015625q0 -3.265625 -1.328125 -4.953125q-1.3125 -1.703125 -3.890625 -1.703125q-2.546875 0 -3.84375 1.671875q-1.296875 1.671875 -1.296875 4.984375zm25.40625 -8.859375q1.140625 0 2.046875 0.1875l-0.359375 2.40625q-1.0625 -0.234375 -1.875 -0.234375q-2.078125 0 -3.5625 1.6875q-1.46875 1.6875 -1.46875 4.203125l0 9.1875l-2.59375 0l0 -17.125l2.140625 0l0.296875 3.171875l0.125 0q0.953125 -1.671875 2.296875 -2.578125q1.34375 -0.90625 2.953125 -0.90625z" fill-rule="nonzero"></path><path fill="#000000" fill-opacity="0.0" d="m12.543535 250.6931l0 0c0 -5.331604 4.3221245 -9.653732 9.653736 -9.653732l197.22797 0c2.5603333 0 5.015793 1.0170898 6.8262177 2.8275146c1.8104248 1.8104248 2.8275146 4.2658997 2.8275146 6.8262177l0 38.613785c0 5.3316345 -4.3221283 9.653748 -9.653732 9.653748l-197.22797 0l0 0c-5.3316116 0 -9.653736 -4.322113 -9.653736 -9.653748z" fill-rule="nonzero"></path><path stroke="#000000" stroke-width="1.0" stroke-linejoin="round" stroke-linecap="butt" d="m12.543535 250.6931l0 0c0 -5.331604 4.3221245 -9.653732 9.653736 -9.653732l197.22797 0c2.5603333 0 5.015793 1.0170898 6.8262177 2.8275146c1.8104248 1.8104248 2.8275146 4.2658997 2.8275146 6.8262177l0 38.613785c0 5.3316345 -4.3221283 9.653748 -9.653732 9.653748l-197.22797 0l0 0c-5.3316116 0 -9.653736 -4.322113 -9.653736 -9.653748z" fill-rule="nonzero"></path><path fill="#000000" d="m43.56906 279.42313l-0.140625 0q-1.796875 2.609375 -5.375 2.609375q-3.359375 0 -5.234375 -2.296875q-1.859375 -2.296875 -1.859375 -6.53125q0 -4.234375 1.875 -6.578125q1.875 -2.34375 5.21875 -2.34375q3.484375 0 5.34375 2.53125l0.203125 0l-0.109375 -1.234375l-0.0625 -1.203125l0 -6.96875l2.59375 0l0 24.3125l-2.109375 0l-0.34375 -2.296875zm-5.1875 0.4375q2.65625 0 3.84375 -1.4375q1.203125 -1.453125 1.203125 -4.671875l0 -0.546875q0 -3.640625 -1.21875 -5.1875q-1.203125 -1.5625 -3.859375 -1.5625q-2.28125 0 -3.5 1.78125q-1.203125 1.765625 -1.203125 5.0q0 3.28125 1.203125 4.953125q1.203125 1.671875 3.53125 1.671875zm23.671875 1.859375l-0.515625 -2.4375l-0.125 0q-1.28125 1.609375 -2.5625 2.1875q-1.265625 0.5625 -3.171875 0.5625q-2.546875 0 -4.0 -1.3125q-1.4375 -1.3125 -1.4375 -3.734375q0 -5.1875 8.296875 -5.4375l2.90625 -0.09375l0 -1.0625q0 -2.015625 -0.875 -2.96875q-0.859375 -0.96875 -2.765625 -0.96875q-2.140625 0 -4.84375 1.3125l-0.796875 -1.984375q1.265625 -0.6875 2.765625 -1.078125q1.515625 -0.390625 3.03125 -0.390625q3.0625 0 4.53125 1.359375q1.484375 1.359375 1.484375 4.359375l0 11.6875l-1.921875 0zm-5.859375 -1.828125q2.421875 0 3.796875 -1.328125q1.390625 -1.328125 1.390625 -3.71875l0 -1.546875l-2.59375 0.109375q-3.09375 0.109375 -4.46875 0.96875q-1.359375 0.84375 -1.359375 2.640625q0 1.40625 0.84375 2.140625q0.859375 0.734375 2.390625 0.734375zm18.65625 0q0.6875 0 1.328125 -0.09375q0.640625 -0.109375 1.015625 -0.21875l0 1.984375q-0.421875 0.203125 -1.25 0.328125q-0.8125 0.140625 -1.46875 0.140625q-4.96875 0 -4.96875 -5.234375l0 -10.1875l-2.453125 0l0 -1.25l2.453125 -1.078125l1.09375 -3.65625l1.5 0l0 3.96875l4.96875 0l0 2.015625l-4.96875 0l0 10.078125q0 1.546875 0.734375 2.375q0.734375 0.828125 2.015625 0.828125zm16.296875 1.828125l-0.515625 -2.4375l-0.125 0q-1.28125 1.609375 -2.5625 2.1875q-1.265625 0.5625 -3.171875 0.5625q-2.546875 0 -4.0 -1.3125q-1.4375 -1.3125 -1.4375 -3.734375q0 -5.1875 8.296875 -5.4375l2.90625 -0.09375l0 -1.0625q0 -2.015625 -0.875 -2.96875q-0.859375 -0.96875 -2.765625 -0.96875q-2.140625 0 -4.84375 1.3125l-0.796875 -1.984375q1.265625 -0.6875 2.765625 -1.078125q1.515625 -0.390625 3.03125 -0.390625q3.0625 0 4.53125 1.359375q1.484375 1.359375 1.484375 4.359375l0 11.6875l-1.921875 0zm-5.859375 -1.828125q2.421875 0 3.796875 -1.328125q1.390625 -1.328125 1.390625 -3.71875l0 -1.546875l-2.59375 0.109375q-3.09375 0.109375 -4.46875 0.96875q-1.359375 0.84375 -1.359375 2.640625q0 1.40625 0.84375 2.140625q0.859375 0.734375 2.390625 0.734375zm32.484375 -2.84375q0 2.390625 -1.78125 3.6875q-1.78125 1.296875 -5.0 1.296875q-3.40625 0 -5.3125 -1.078125l0 -2.40625q1.234375 0.625 2.640625 0.984375q1.421875 0.359375 2.734375 0.359375q2.03125 0 3.125 -0.640625q1.09375 -0.65625 1.09375 -1.984375q0 -1.0 -0.875 -1.703125q-0.859375 -0.71875 -3.375 -1.6875q-2.390625 -0.890625 -3.40625 -1.546875q-1.0 -0.671875 -1.5 -1.515625q-0.484375 -0.84375 -0.484375 -2.015625q0 -2.09375 1.703125 -3.296875q1.703125 -1.21875 4.671875 -1.21875q2.765625 0 5.40625 1.125l-0.921875 2.109375q-2.578125 -1.0625 -4.671875 -1.0625q-1.84375 0 -2.78125 0.578125q-0.9375 0.578125 -0.9375 1.59375q0 0.6875 0.34375 1.171875q0.359375 0.484375 1.140625 0.921875q0.78125 0.4375 3.0 1.265625q3.046875 1.109375 4.109375 2.234375q1.078125 1.125 1.078125 2.828125zm14.75 4.671875l-0.515625 -2.4375l-0.125 0q-1.28125 1.609375 -2.5625 2.1875q-1.265625 0.5625 -3.171875 0.5625q-2.546875 0 -4.0 -1.3125q-1.4375 -1.3125 -1.4375 -3.734375q0 -5.1875 8.296875 -5.4375l2.90625 -0.09375l0 -1.0625q0 -2.015625 -0.875 -2.96875q-0.859375 -0.96875 -2.765625 -0.96875q-2.140625 0 -4.84375 1.3125l-0.796875 -1.984375q1.265625 -0.6875 2.765625 -1.078125q1.515625 -0.390625 3.03125 -0.390625q3.0625 0 4.53125 1.359375q1.484375 1.359375 1.484375 4.359375l0 11.6875l-1.921875 0zm-5.859375 -1.828125q2.421875 0 3.796875 -1.328125q1.390625 -1.328125 1.390625 -3.71875l0 -1.546875l-2.59375 0.109375q-3.09375 0.109375 -4.46875 0.96875q-1.359375 0.84375 -1.359375 2.640625q0 1.40625 0.84375 2.140625q0.859375 0.734375 2.390625 0.734375zm34.953125 1.828125l0 -11.140625q0 -2.046875 -0.875 -3.0625q-0.875 -1.03125 -2.71875 -1.03125q-2.421875 0 -3.578125 1.390625q-1.15625 1.390625 -1.15625 4.28125l0 9.5625l-2.59375 0l0 -11.140625q0 -2.046875 -0.875 -3.0625q-0.875 -1.03125 -2.734375 -1.03125q-2.4375 0 -3.578125 1.46875q-1.125 1.453125 -1.125 4.78125l0 8.984375l-2.59375 0l0 -17.125l2.109375 0l0.421875 2.34375l0.125 0q0.734375 -1.25 2.0625 -1.953125q1.34375 -0.703125 3.0 -0.703125q4.015625 0 5.25 2.90625l0.125 0q0.765625 -1.34375 2.21875 -2.125q1.453125 -0.78125 3.3125 -0.78125q2.90625 0 4.34375 1.5q1.453125 1.484375 1.453125 4.765625l0 11.171875l-2.59375 0zm15.90625 0.3125q-1.671875 0 -3.0625 -0.609375q-1.375 -0.625 -2.3125 -1.90625l-0.1875 0q0.1875 1.5 0.1875 2.84375l0 7.046875l-2.59375 0l0 -24.8125l2.109375 0l0.359375 2.34375l0.125 0q1.0 -1.40625 2.328125 -2.03125q1.328125 -0.625 3.046875 -0.625q3.40625 0 5.25 2.328125q1.859375 2.328125 1.859375 6.53125q0 4.21875 -1.890625 6.5625q-1.875 2.328125 -5.21875 2.328125zm-0.375 -15.546875q-2.625 0 -3.796875 1.453125q-1.171875 1.453125 -1.203125 4.625l0 0.578125q0 3.609375 1.203125 5.171875q1.203125 1.546875 3.859375 1.546875q2.21875 0 3.46875 -1.796875q1.265625 -1.796875 1.265625 -4.953125q0 -3.203125 -1.265625 -4.90625q-1.25 -1.71875 -3.53125 -1.71875zm14.609375 15.234375l-2.59375 0l0 -24.3125l2.59375 0l0 24.3125zm12.734375 0.3125q-3.796875 0 -6.0 -2.3125q-2.1875 -2.3125 -2.1875 -6.421875q0 -4.140625 2.03125 -6.578125q2.046875 -2.4375 5.484375 -2.4375q3.21875 0 5.09375 2.125q1.875 2.109375 1.875 5.578125l0 1.640625l-11.796875 0q0.078125 3.015625 1.515625 4.578125q1.453125 1.5625 4.078125 1.5625q2.765625 0 5.46875 -1.15625l0 2.3125q-1.375 0.59375 -2.609375 0.84375q-1.21875 0.265625 -2.953125 0.265625zm-0.703125 -15.578125q-2.0625 0 -3.296875 1.34375q-1.21875 1.34375 -1.4375 3.71875l8.953125 0q0 -2.453125 -1.09375 -3.75q-1.09375 -1.3125 -3.125 -1.3125z" fill-rule="nonzero"></path><path fill="#000000" fill-opacity="0.0" d="m364.41025 250.69249l0 0c0 -5.3316193 4.3221436 -9.653732 9.653748 -9.653732l211.87363 0c2.5603027 0 5.015808 1.0170746 6.826233 2.8275146c1.8104248 1.8104248 2.8275146 4.2658844 2.8275146 6.8262177l0 38.613785c0 5.331604 -4.3221436 9.653748 -9.653748 9.653748l-211.87363 0c-5.331604 0 -9.653748 -4.3221436 -9.653748 -9.653748z" fill-rule="nonzero"></path><path stroke="#000000" stroke-width="1.0" stroke-linejoin="round" stroke-linecap="butt" d="m364.41025 250.69249l0 0c0 -5.3316193 4.3221436 -9.653732 9.653748 -9.653732l211.87363 0c2.5603027 0 5.015808 1.0170746 6.826233 2.8275146c1.8104248 1.8104248 2.8275146 4.2658844 2.8275146 6.8262177l0 38.613785c0 5.331604 -4.3221436 9.653748 -9.653748 9.653748l-211.87363 0c-5.331604 0 -9.653748 -4.3221436 -9.653748 -9.653748z" fill-rule="nonzero"></path><path fill="#000000" d="m395.23517 279.42252l-0.140625 0q-1.796875 2.609375 -5.375 2.609375q-3.359375 0 -5.234375 -2.296875q-1.859375 -2.296875 -1.859375 -6.53125q0 -4.234375 1.875 -6.578125q1.875 -2.34375 5.21875 -2.34375q3.484375 0 5.34375 2.53125l0.203125 0l-0.109375 -1.234375l-0.0625 -1.203125l0 -6.96875l2.59375 0l0 24.3125l-2.109375 0l-0.34375 -2.296875zm-5.1875 0.4375q2.65625 0 3.84375 -1.4375q1.203125 -1.453125 1.203125 -4.671875l0 -0.546875q0 -3.640625 -1.21875 -5.1875q-1.203125 -1.5625 -3.859375 -1.5625q-2.28125 0 -3.5 1.78125q-1.203125 1.765625 -1.203125 5.0q0 3.28125 1.203125 4.953125q1.203125 1.671875 3.53125 1.671875zm15.734375 1.859375l-2.59375 0l0 -17.125l2.59375 0l0 17.125zm-2.8125 -21.765625q0 -0.890625 0.4375 -1.296875q0.4375 -0.421875 1.09375 -0.421875q0.625 0 1.078125 0.421875q0.453125 0.421875 0.453125 1.296875q0 0.875 -0.453125 1.3125q-0.453125 0.421875 -1.078125 0.421875q-0.65625 0 -1.09375 -0.421875q-0.4375 -0.4375 -0.4375 -1.3125zm19.359375 17.09375q0 2.390625 -1.78125 3.6875q-1.78125 1.296875 -5.0 1.296875q-3.40625 0 -5.3125 -1.078125l0 -2.40625q1.234375 0.625 2.640625 0.984375q1.421875 0.359375 2.734375 0.359375q2.03125 0 3.125 -0.640625q1.09375 -0.65625 1.09375 -1.984375q0 -1.0 -0.875 -1.703125q-0.859375 -0.71875 -3.375 -1.6875q-2.390625 -0.890625 -3.40625 -1.546875q-1.0 -0.671875 -1.5 -1.515625q-0.484375 -0.84375 -0.484375 -2.015625q0 -2.09375 1.703125 -3.296875q1.703125 -1.21875 4.671875 -1.21875q2.765625 0 5.40625 1.125l-0.921875 2.109375q-2.578125 -1.0625 -4.671875 -1.0625q-1.84375 0 -2.78125 0.578125q-0.9375 0.578125 -0.9375 1.59375q0 0.6875 0.34375 1.171875q0.359375 0.484375 1.140625 0.921875q0.78125 0.4375 3.0 1.265625q3.046875 1.109375 4.109375 2.234375q1.078125 1.125 1.078125 2.828125zm11.0625 4.984375q-3.71875 0 -5.765625 -2.28125q-2.03125 -2.296875 -2.03125 -6.484375q0 -4.296875 2.0625 -6.640625q2.078125 -2.34375 5.90625 -2.34375q1.234375 0 2.46875 0.265625q1.234375 0.265625 1.9375 0.625l-0.796875 2.203125q-0.859375 -0.34375 -1.875 -0.5625q-1.015625 -0.234375 -1.796875 -0.234375q-5.21875 0 -5.21875 6.65625q0 3.15625 1.265625 4.84375q1.28125 1.6875 3.78125 1.6875q2.140625 0 4.390625 -0.921875l0 2.296875q-1.71875 0.890625 -4.328125 0.890625zm16.203125 -17.75q1.140625 0 2.046875 0.1875l-0.359375 2.40625q-1.0625 -0.234375 -1.875 -0.234375q-2.078125 0 -3.5625 1.6875q-1.46875 1.6875 -1.46875 4.203125l0 9.1875l-2.59375 0l0 -17.125l2.140625 0l0.296875 3.171875l0.125 0q0.953125 -1.671875 2.296875 -2.578125q1.34375 -0.90625 2.953125 -0.90625zm7.84375 17.4375l-2.59375 0l0 -17.125l2.59375 0l0 17.125zm-2.8125 -21.765625q0 -0.890625 0.4375 -1.296875q0.4375 -0.421875 1.09375 -0.421875q0.625 0 1.078125 0.421875q0.453125 0.421875 0.453125 1.296875q0 0.875 -0.453125 1.3125q-0.453125 0.421875 -1.078125 0.421875q-0.65625 0 -1.09375 -0.421875q-0.4375 -0.4375 -0.4375 -1.3125zm30.140625 21.765625l0 -11.140625q0 -2.046875 -0.875 -3.0625q-0.875 -1.03125 -2.71875 -1.03125q-2.421875 0 -3.578125 1.390625q-1.15625 1.390625 -1.15625 4.28125l0 9.5625l-2.59375 0l0 -11.140625q0 -2.046875 -0.875 -3.0625q-0.875 -1.03125 -2.734375 -1.03125q-2.4375 0 -3.578125 1.46875q-1.125 1.453125 -1.125 4.78125l0 8.984375l-2.59375 0l0 -17.125l2.109375 0l0.421875 2.34375l0.125 0q0.734375 -1.25 2.0625 -1.953125q1.34375 -0.703125 3.0 -0.703125q4.015625 0 5.25 2.90625l0.125 0q0.765625 -1.34375 2.21875 -2.125q1.453125 -0.78125 3.3125 -0.78125q2.90625 0 4.34375 1.5q1.453125 1.484375 1.453125 4.765625l0 11.171875l-2.59375 0zm10.53125 0l-2.59375 0l0 -17.125l2.59375 0l0 17.125zm-2.8125 -21.765625q0 -0.890625 0.4375 -1.296875q0.4375 -0.421875 1.09375 -0.421875q0.625 0 1.078125 0.421875q0.453125 0.421875 0.453125 1.296875q0 0.875 -0.453125 1.3125q-0.453125 0.421875 -1.078125 0.421875q-0.65625 0 -1.09375 -0.421875q-0.4375 -0.4375 -0.4375 -1.3125zm20.03125 21.765625l0 -11.078125q0 -2.09375 -0.953125 -3.125q-0.953125 -1.03125 -2.984375 -1.03125q-2.6875 0 -3.9375 1.453125q-1.25 1.453125 -1.25 4.796875l0 8.984375l-2.59375 0l0 -17.125l2.109375 0l0.421875 2.34375l0.125 0q0.796875 -1.265625 2.234375 -1.953125q1.4375 -0.703125 3.203125 -0.703125q3.09375 0 4.65625 1.5q1.5625 1.484375 1.5625 4.765625l0 11.171875l-2.59375 0zm18.453125 0l-0.515625 -2.4375l-0.125 0q-1.28125 1.609375 -2.5625 2.1875q-1.265625 0.5625 -3.171875 0.5625q-2.546875 0 -4.0 -1.3125q-1.4375 -1.3125 -1.4375 -3.734375q0 -5.1875 8.296875 -5.4375l2.90625 -0.09375l0 -1.0625q0 -2.015625 -0.875 -2.96875q-0.859375 -0.96875 -2.765625 -0.96875q-2.140625 0 -4.84375 1.3125l-0.796875 -1.984375q1.265625 -0.6875 2.765625 -1.078125q1.515625 -0.390625 3.03125 -0.390625q3.0625 0 4.53125 1.359375q1.484375 1.359375 1.484375 4.359375l0 11.6875l-1.921875 0zm-5.859375 -1.828125q2.421875 0 3.796875 -1.328125q1.390625 -1.328125 1.390625 -3.71875l0 -1.546875l-2.59375 0.109375q-3.09375 0.109375 -4.46875 0.96875q-1.359375 0.84375 -1.359375 2.640625q0 1.40625 0.84375 2.140625q0.859375 0.734375 2.390625 0.734375zm18.65625 0q0.6875 0 1.328125 -0.09375q0.640625 -0.109375 1.015625 -0.21875l0 1.984375q-0.421875 0.203125 -1.25 0.328125q-0.8125 0.140625 -1.46875 0.140625q-4.96875 0 -4.96875 -5.234375l0 -10.1875l-2.453125 0l0 -1.25l2.453125 -1.078125l1.09375 -3.65625l1.5 0l0 3.96875l4.96875 0l0 2.015625l-4.96875 0l0 10.078125q0 1.546875 0.734375 2.375q0.734375 0.828125 2.015625 0.828125zm20.546875 -6.75q0 4.1875 -2.109375 6.546875q-2.109375 2.34375 -5.828125 2.34375q-2.296875 0 -4.078125 -1.078125q-1.78125 -1.078125 -2.75 -3.09375q-0.96875 -2.015625 -0.96875 -4.71875q0 -4.1875 2.09375 -6.515625q2.09375 -2.34375 5.8125 -2.34375q3.59375 0 5.703125 2.390625q2.125 2.390625 2.125 6.46875zm-13.046875 0q0 3.28125 1.3125 5.0q1.3125 1.71875 3.859375 1.71875q2.546875 0 3.859375 -1.703125q1.328125 -1.71875 1.328125 -5.015625q0 -3.265625 -1.328125 -4.953125q-1.3125 -1.703125 -3.890625 -1.703125q-2.546875 0 -3.84375 1.671875q-1.296875 1.671875 -1.296875 4.984375zm25.40625 -8.859375q1.140625 0 2.046875 0.1875l-0.359375 2.40625q-1.0625 -0.234375 -1.875 -0.234375q-2.078125 0 -3.5625 1.6875q-1.46875 1.6875 -1.46875 4.203125l0 9.1875l-2.59375 0l0 -17.125l2.140625 0l0.296875 3.171875l0.125 0q0.953125 -1.671875 2.296875 -2.578125q1.34375 -0.90625 2.953125 -0.90625z" fill-rule="nonzero"></path><path fill="#000000" fill-opacity="0.0" d="m406.15485 441.42276l0 0c0 -5.331604 4.3221436 -9.653717 9.653748 -9.653717l128.37756 0c2.5603027 0 5.015808 1.0170593 6.826233 2.8275146c1.8104248 1.8104248 2.8275146 4.265869 2.8275146 6.8262024l0 38.6138c0 5.331604 -4.3221436 9.653717 -9.653748 9.653717l-128.37756 0l0 0c-5.331604 0 -9.653748 -4.322113 -9.653748 -9.653717z" fill-rule="nonzero"></path><path stroke="#000000" stroke-width="1.0" stroke-linejoin="round" stroke-linecap="butt" d="m406.15485 441.42276l0 0c0 -5.331604 4.3221436 -9.653717 9.653748 -9.653717l128.37756 0c2.5603027 0 5.015808 1.0170593 6.826233 2.8275146c1.8104248 1.8104248 2.8275146 4.265869 2.8275146 6.8262024l0 38.6138c0 5.331604 -4.3221436 9.653717 -9.653748 9.653717l-128.37756 0l0 0c-5.331604 0 -9.653748 -4.322113 -9.653748 -9.653717z" fill-rule="nonzero"></path><path fill="#000000" d="m421.68488 455.32465l2.78125 0l3.75 9.765625q1.234375 3.34375 1.53125 4.828125l0.125 0q0.203125 -0.796875 0.84375 -2.71875q0.65625 -1.9375 4.25 -11.875l2.78125 0l-7.359375 19.5q-1.09375 2.890625 -2.5625 4.09375q-1.453125 1.21875 -3.578125 1.21875q-1.1875 0 -2.34375 -0.265625l0 -2.078125q0.859375 0.1875 1.921875 0.1875q2.671875 0 3.8125 -3.0l0.953125 -2.4375l-6.90625 -17.21875zm26.078125 17.4375q-3.796875 0 -6.0 -2.3125q-2.1875 -2.3125 -2.1875 -6.421875q0 -4.140625 2.03125 -6.578125q2.046875 -2.4375 5.484375 -2.4375q3.21875 0 5.09375 2.125q1.875 2.109375 1.875 5.578125l0 1.640625l-11.796875 0q0.078125 3.015625 1.515625 4.578125q1.453125 1.5625 4.078125 1.5625q2.765625 0 5.46875 -1.15625l0 2.3125q-1.375 0.59375 -2.609375 0.84375q-1.21875 0.265625 -2.953125 0.265625zm-0.703125 -15.578125q-2.0625 0 -3.296875 1.34375q-1.21875 1.34375 -1.4375 3.71875l8.953125 0q0 -2.453125 -1.09375 -3.75q-1.09375 -1.3125 -3.125 -1.3125zm22.46875 10.59375q0 2.390625 -1.78125 3.6875q-1.78125 1.296875 -5.0 1.296875q-3.40625 0 -5.3125 -1.078125l0 -2.40625q1.234375 0.625 2.640625 0.984375q1.421875 0.359375 2.734375 0.359375q2.03125 0 3.125 -0.640625q1.09375 -0.65625 1.09375 -1.984375q0 -1.0 -0.875 -1.703125q-0.859375 -0.71875 -3.375 -1.6875q-2.390625 -0.890625 -3.40625 -1.546875q-1.0 -0.671875 -1.5 -1.515625q-0.484375 -0.84375 -0.484375 -2.015625q0 -2.09375 1.703125 -3.296875q1.703125 -1.21875 4.671875 -1.21875q2.765625 0 5.40625 1.125l-0.921875 2.109375q-2.578125 -1.0625 -4.671875 -1.0625q-1.84375 0 -2.78125 0.578125q-0.9375 0.578125 -0.9375 1.59375q0 0.6875 0.34375 1.171875q0.359375 0.484375 1.140625 0.921875q0.78125 0.4375 3.0 1.265625q3.046875 1.109375 4.109375 2.234375q1.078125 1.125 1.078125 2.828125zm21.203125 -18.171875l-8.515625 22.84375l-2.59375 0l8.515625 -22.84375l2.59375 0zm23.109375 22.84375l0 -11.078125q0 -2.09375 -0.953125 -3.125q-0.953125 -1.03125 -2.984375 -1.03125q-2.6875 0 -3.9375 1.453125q-1.25 1.453125 -1.25 4.796875l0 8.984375l-2.59375 0l0 -17.125l2.109375 0l0.421875 2.34375l0.125 0q0.796875 -1.265625 2.234375 -1.953125q1.4375 -0.703125 3.203125 -0.703125q3.09375 0 4.65625 1.5q1.5625 1.484375 1.5625 4.765625l0 11.171875l-2.59375 0zm22.703125 -8.578125q0 4.1875 -2.109375 6.546875q-2.109375 2.34375 -5.828125 2.34375q-2.296875 0 -4.078125 -1.078125q-1.78125 -1.078125 -2.75 -3.09375q-0.96875 -2.015625 -0.96875 -4.71875q0 -4.1875 2.09375 -6.515625q2.09375 -2.34375 5.8125 -2.34375q3.59375 0 5.703125 2.390625q2.125 2.390625 2.125 6.46875zm-13.046875 0q0 3.28125 1.3125 5.0q1.3125 1.71875 3.859375 1.71875q2.546875 0 3.859375 -1.703125q1.328125 -1.71875 1.328125 -5.015625q0 -3.265625 -1.328125 -4.953125q-1.3125 -1.703125 -3.890625 -1.703125q-2.546875 0 -3.84375 1.671875q-1.296875 1.671875 -1.296875 4.984375z" fill-rule="nonzero"></path><path fill="#000000" fill-opacity="0.0" d="m480.0008 298.96002l0 132.81888" fill-rule="nonzero"></path><path stroke="#000000" stroke-width="1.0" stroke-linejoin="round" stroke-linecap="butt" d="m480.00082 298.96002l0 126.81888" fill-rule="evenodd"></path><path fill="#000000" stroke="#000000" stroke-width="1.0" stroke-linecap="butt" d="m478.3491 425.7789l1.6517334 4.5381165l1.6517334 -4.5381165z" fill-rule="evenodd"></path><path fill="#000000" fill-opacity="0.0" d="m229.07896 270.0l135.33858 0" fill-rule="nonzero"></path><path stroke="#000000" stroke-width="1.0" stroke-linejoin="round" stroke-linecap="butt" d="m229.07896 270.0l129.33861 0" fill-rule="evenodd"></path><path fill="#000000" stroke="#000000" stroke-width="1.0" stroke-linecap="butt" d="m358.41757 271.65173l4.538086 -1.6517334l-4.538086 -1.6517334z" fill-rule="evenodd"></path><path fill="#000000" fill-opacity="0.0" d="m711.43567 270.0l-115.84247 0" fill-rule="nonzero"></path><path stroke="#000000" stroke-width="1.0" stroke-linejoin="round" stroke-linecap="butt" d="m711.43567 270.0l-109.84247 0" fill-rule="evenodd"></path><path fill="#000000" stroke="#000000" stroke-width="1.0" stroke-linecap="butt" d="m601.5932 268.34827l-4.538147 1.6517334l4.538147 1.6517334z" fill-rule="evenodd"></path><path fill="#000000" fill-opacity="0.0" d="m480.0 322.54593l171.49603 0l0 85.63779l-171.49603 0z" fill-rule="nonzero"></path><path fill="#000000" d="m503.40625 355.78796l-0.140625 0q-1.796875 2.609375 -5.375 2.609375q-3.359375 0 -5.234375 -2.296875q-1.859375 -2.296875 -1.859375 -6.53125q0 -4.234375 1.875 -6.578125q1.875 -2.34375 5.21875 -2.34375q3.484375 0 5.34375 2.53125l0.203125 0l-0.109375 -1.234375l-0.0625 -1.203125l0 -6.96875l2.59375 0l0 24.3125l-2.109375 0l-0.34375 -2.296875zm-5.1875 0.4375q2.65625 0 3.84375 -1.4375q1.203125 -1.453125 1.203125 -4.671875l0 -0.546875q0 -3.640625 -1.21875 -5.1875q-1.203125 -1.5625 -3.859375 -1.5625q-2.28125 0 -3.5 1.78125q-1.203125 1.765625 -1.203125 5.0q0 3.28125 1.203125 4.953125q1.203125 1.671875 3.53125 1.671875zm23.671875 1.859375l-0.515625 -2.4375l-0.125 0q-1.28125 1.609375 -2.5625 2.1875q-1.265625 0.5625 -3.171875 0.5625q-2.546875 0 -4.0 -1.3125q-1.4375 -1.3125 -1.4375 -3.734375q0 -5.1875 8.296875 -5.4375l2.90625 -0.09375l0 -1.0625q0 -2.015625 -0.875 -2.96875q-0.859375 -0.96875 -2.765625 -0.96875q-2.140625 0 -4.84375 1.3125l-0.796875 -1.984375q1.265625 -0.6875 2.765625 -1.078125q1.515625 -0.390625 3.03125 -0.390625q3.0625 0 4.53125 1.359375q1.484375 1.359375 1.484375 4.359375l0 11.6875l-1.921875 0zm-5.859375 -1.828125q2.421875 0 3.796875 -1.328125q1.390625 -1.328125 1.390625 -3.71875l0 -1.546875l-2.59375 0.109375q-3.09375 0.109375 -4.46875 0.96875q-1.359375 0.84375 -1.359375 2.640625q0 1.40625 0.84375 2.140625q0.859375 0.734375 2.390625 0.734375zm18.65625 0q0.6875 0 1.328125 -0.09375q0.640625 -0.109375 1.015625 -0.21875l0 1.984375q-0.421875 0.203125 -1.25 0.328125q-0.8125 0.140625 -1.46875 0.140625q-4.96875 0 -4.96875 -5.234375l0 -10.1875l-2.453125 0l0 -1.25l2.453125 -1.078125l1.09375 -3.65625l1.5 0l0 3.96875l4.96875 0l0 2.015625l-4.96875 0l0 10.078125q0 1.546875 0.734375 2.375q0.734375 0.828125 2.015625 0.828125zm16.296875 1.828125l-0.515625 -2.4375l-0.125 0q-1.28125 1.609375 -2.5625 2.1875q-1.265625 0.5625 -3.171875 0.5625q-2.546875 0 -4.0 -1.3125q-1.4375 -1.3125 -1.4375 -3.734375q0 -5.1875 8.296875 -5.4375l2.90625 -0.09375l0 -1.0625q0 -2.015625 -0.875 -2.96875q-0.859375 -0.96875 -2.765625 -0.96875q-2.140625 0 -4.84375 1.3125l-0.796875 -1.984375q1.265625 -0.6875 2.765625 -1.078125q1.515625 -0.390625 3.03125 -0.390625q3.0625 0 4.53125 1.359375q1.484375 1.359375 1.484375 4.359375l0 11.6875l-1.921875 0zm-5.859375 -1.828125q2.421875 0 3.796875 -1.328125q1.390625 -1.328125 1.390625 -3.71875l0 -1.546875l-2.59375 0.109375q-3.09375 0.109375 -4.46875 0.96875q-1.359375 0.84375 -1.359375 2.640625q0 1.40625 0.84375 2.140625q0.859375 0.734375 2.390625 0.734375z" fill-rule="nonzero"></path><path fill="#000000" d="m502.79688 391.41296q0 2.390625 -1.78125 3.6875q-1.78125 1.296875 -5.0 1.296875q-3.40625 0 -5.3125 -1.078125l0 -2.40625q1.234375 0.625 2.640625 0.984375q1.421875 0.359375 2.734375 0.359375q2.03125 0 3.125 -0.640625q1.09375 -0.65625 1.09375 -1.984375q0 -1.0 -0.875 -1.703125q-0.859375 -0.71875 -3.375 -1.6875q-2.390625 -0.890625 -3.40625 -1.546875q-1.0 -0.671875 -1.5 -1.515625q-0.484375 -0.84375 -0.484375 -2.015625q0 -2.09375 1.703125 -3.296875q1.703125 -1.21875 4.671875 -1.21875q2.765625 0 5.40625 1.125l-0.921875 2.109375q-2.578125 -1.0625 -4.671875 -1.0625q-1.84375 0 -2.78125 0.578125q-0.9375 0.578125 -0.9375 1.59375q0 0.6875 0.34375 1.171875q0.359375 0.484375 1.140625 0.921875q0.78125 0.4375 3.0 1.265625q3.046875 1.109375 4.109375 2.234375q1.078125 1.125 1.078125 2.828125zm14.75 4.671875l-0.515625 -2.4375l-0.125 0q-1.28125 1.609375 -2.5625 2.1875q-1.265625 0.5625 -3.171875 0.5625q-2.546875 0 -4.0 -1.3125q-1.4375 -1.3125 -1.4375 -3.734375q0 -5.1875 8.296875 -5.4375l2.90625 -0.09375l0 -1.0625q0 -2.015625 -0.875 -2.96875q-0.859375 -0.96875 -2.765625 -0.96875q-2.140625 0 -4.84375 1.3125l-0.796875 -1.984375q1.265625 -0.6875 2.765625 -1.078125q1.515625 -0.390625 3.03125 -0.390625q3.0625 0 4.53125 1.359375q1.484375 1.359375 1.484375 4.359375l0 11.6875l-1.921875 0zm-5.859375 -1.828125q2.421875 0 3.796875 -1.328125q1.390625 -1.328125 1.390625 -3.71875l0 -1.546875l-2.59375 0.109375q-3.09375 0.109375 -4.46875 0.96875q-1.359375 0.84375 -1.359375 2.640625q0 1.40625 0.84375 2.140625q0.859375 0.734375 2.390625 0.734375zm34.953125 1.828125l0 -11.140625q0 -2.046875 -0.875 -3.0625q-0.875 -1.03125 -2.71875 -1.03125q-2.421875 0 -3.578125 1.390625q-1.15625 1.390625 -1.15625 4.28125l0 9.5625l-2.59375 0l0 -11.140625q0 -2.046875 -0.875 -3.0625q-0.875 -1.03125 -2.734375 -1.03125q-2.4375 0 -3.578125 1.46875q-1.125 1.453125 -1.125 4.78125l0 8.984375l-2.59375 0l0 -17.125l2.109375 0l0.421875 2.34375l0.125 0q0.734375 -1.25 2.0625 -1.953125q1.34375 -0.703125 3.0 -0.703125q4.015625 0 5.25 2.90625l0.125 0q0.765625 -1.34375 2.21875 -2.125q1.453125 -0.78125 3.3125 -0.78125q2.90625 0 4.34375 1.5q1.453125 1.484375 1.453125 4.765625l0 11.171875l-2.59375 0zm15.90625 0.3125q-1.671875 0 -3.0625 -0.609375q-1.375 -0.625 -2.3125 -1.90625l-0.1875 0q0.1875 1.5 0.1875 2.84375l0 7.046875l-2.59375 0l0 -24.8125l2.109375 0l0.359375 2.34375l0.125 0q1.0 -1.40625 2.328125 -2.03125q1.328125 -0.625 3.046875 -0.625q3.40625 0 5.25 2.328125q1.859375 2.328125 1.859375 6.53125q0 4.21875 -1.890625 6.5625q-1.875 2.328125 -5.21875 2.328125zm-0.375 -15.546875q-2.625 0 -3.796875 1.453125q-1.171875 1.453125 -1.203125 4.625l0 0.578125q0 3.609375 1.203125 5.171875q1.203125 1.546875 3.859375 1.546875q2.21875 0 3.46875 -1.796875q1.265625 -1.796875 1.265625 -4.953125q0 -3.203125 -1.265625 -4.90625q-1.25 -1.71875 -3.53125 -1.71875zm14.609375 15.234375l-2.59375 0l0 -24.3125l2.59375 0l0 24.3125zm12.734375 0.3125q-3.796875 0 -6.0 -2.3125q-2.1875 -2.3125 -2.1875 -6.421875q0 -4.140625 2.03125 -6.578125q2.046875 -2.4375 5.484375 -2.4375q3.21875 0 5.09375 2.125q1.875 2.109375 1.875 5.578125l0 1.640625l-11.796875 0q0.078125 3.015625 1.515625 4.578125q1.453125 1.5625 4.078125 1.5625q2.765625 0 5.46875 -1.15625l0 2.3125q-1.375 0.59375 -2.609375 0.84375q-1.21875 0.265625 -2.953125 0.265625zm-0.703125 -15.578125q-2.0625 0 -3.296875 1.34375q-1.21875 1.34375 -1.4375 3.71875l8.953125 0q0 -2.453125 -1.09375 -3.75q-1.09375 -1.3125 -3.125 -1.3125zm13.1875 8.96875l0 -0.84375q0 -1.828125 0.5625 -3.0q0.5625 -1.1875 2.09375 -2.5q2.125 -1.796875 2.671875 -2.703125q0.5625 -0.90625 0.5625 -2.1875q0 -1.59375 -1.03125 -2.453125q-1.015625 -0.875 -2.9375 -0.875q-1.234375 0 -2.40625 0.296875q-1.171875 0.28125 -2.6875 1.046875l-0.921875 -2.109375q2.953125 -1.546875 6.171875 -1.546875q2.984375 0 4.640625 1.46875q1.65625 1.46875 1.65625 4.140625q0 1.140625 -0.3125 2.015625q-0.296875 0.859375 -0.890625 1.640625q-0.59375 0.765625 -2.5625 2.484375q-1.578125 1.34375 -2.09375 2.234375q-0.5 0.890625 -0.5 2.375l0 0.515625l-2.015625 0zm-0.765625 4.640625q0 -2.125 1.875 -2.125q0.90625 0 1.390625 0.546875q0.5 0.546875 0.5 1.578125q0 1.0 -0.5 1.5625q-0.5 0.546875 -1.390625 0.546875q-0.8125 0 -1.34375 -0.484375q-0.53125 -0.5 -0.53125 -1.625z" fill-rule="nonzero"></path></g></svg>

